<svg width="21" height="50" viewBox="0 0 21 50" fill="none" xmlns="http://www.w3.org/2000/svg">
<g clip-path="url(#clip0_7_49)">
<path fill-rule="evenodd" clip-rule="evenodd" d="M10.1546 0.460205C-2.92265 25.4474 27.9437 25.4474 0.315857 48.7685C20.3067 25.2494 -12.3101 27.2344 10.1546 0.460205Z" fill="#014069" stroke="#014069" stroke-width="0.639863" stroke-miterlimit="22.9256" stroke-linecap="round" stroke-linejoin="round"/>
<path fill-rule="evenodd" clip-rule="evenodd" d="M12.446 23.8558C24.1911 30.9791 15.4754 45.1892 2.65201 49.5399C12.5797 41.7154 17.1917 33.3041 12.446 23.8558Z" fill="#FF9005" stroke="#FF9005" stroke-width="0.639863" stroke-miterlimit="22.9256" stroke-linecap="round" stroke-linejoin="round"/>
<path fill-rule="evenodd" clip-rule="evenodd" d="M0.672058 31.399C14.4072 35.9863 21.0377 36.3622 18.1737 32.1938C28.3567 40.3326 4.49043 35.7671 0.672058 31.399Z" fill="#747475"/>
<path fill-rule="evenodd" clip-rule="evenodd" d="M0.99057 34.7449C14.7254 39.3322 21.3562 39.7081 18.4922 35.5396C28.6748 43.6785 4.80894 39.1129 0.99057 34.7449Z" fill="#747475"/>
</g>
<defs>
<clipPath id="clip0_7_49">
<rect width="21" height="50" fill="white"/>
</clipPath>
</defs>
</svg>
